<svg xmlns="http://www.w3.org/2000/svg" width="286.854" height="101.799" viewBox="0 0 286.854 101.799">
  <defs>
    <style>
      .cls-1, .cls-2 {
        stroke: #000;
      }

      .cls-1 {
        stroke-width: 0.25px;
      }

      .cls-2 {
        stroke-width: 2.5px;
      }
    </style>
  </defs>
  <g id="Group_2" data-name="Group 2" transform="translate(-405.626 -126.377)">
    <path id="Path_6" data-name="Path 6" class="cls-1" d="M1.758,0V-17.18H8.2a7.977,7.977,0,0,1,3.158.521,4.061,4.061,0,0,1,1.863,1.605,4.232,4.232,0,0,1,.674,2.268,3.9,3.9,0,0,1-.6,2.074,4.267,4.267,0,0,1-1.8,1.57,4.487,4.487,0,0,1,2.4,1.559,4.174,4.174,0,0,1,.838,2.6,5.018,5.018,0,0,1-.51,2.244,4.345,4.345,0,0,1-1.26,1.6,5.258,5.258,0,0,1-1.881.85A11.439,11.439,0,0,1,8.309,0ZM4.031-9.961H7.746a8.289,8.289,0,0,0,2.168-.2,2.41,2.41,0,0,0,1.307-.855,2.464,2.464,0,0,0,.439-1.5,2.763,2.763,0,0,0-.41-1.506,2.076,2.076,0,0,0-1.172-.891,9.787,9.787,0,0,0-2.613-.24H4.031Zm0,7.934H8.309a9.846,9.846,0,0,0,1.547-.082,3.707,3.707,0,0,0,1.313-.469,2.489,2.489,0,0,0,.867-.955,2.989,2.989,0,0,0,.34-1.447,2.855,2.855,0,0,0-.492-1.67,2.6,2.6,0,0,0-1.365-1A8.465,8.465,0,0,0,8-7.934H4.031Zm23.038-1.98,2.18.27a5.318,5.318,0,0,1-1.91,2.965A5.742,5.742,0,0,1,23.776.281,5.693,5.693,0,0,1,19.446-1.4a6.571,6.571,0,0,1-1.6-4.717,6.877,6.877,0,0,1,1.617-4.875,5.474,5.474,0,0,1,4.2-1.734,5.321,5.321,0,0,1,4.078,1.7,6.751,6.751,0,0,1,1.582,4.781q0,.188-.012.563H20.026a4.782,4.782,0,0,0,1.16,3.141,3.453,3.453,0,0,0,2.6,1.09,3.228,3.228,0,0,0,1.98-.609A4.045,4.045,0,0,0,27.069-4.008Zm-6.926-3.41h6.949a4.216,4.216,0,0,0-.8-2.355,3.233,3.233,0,0,0-2.613-1.219,3.351,3.351,0,0,0-2.443.973A3.85,3.85,0,0,0,20.144-7.418ZM40.979-1.535A7.855,7.855,0,0,1,38.723-.129,6.518,6.518,0,0,1,36.4.281a4.525,4.525,0,0,1-3.152-1,3.307,3.307,0,0,1-1.1-2.561,3.405,3.405,0,0,1,.416-1.67,3.444,3.444,0,0,1,1.09-1.213,5.125,5.125,0,0,1,1.518-.691,15.073,15.073,0,0,1,1.875-.316A19.28,19.28,0,0,0,40.8-7.9q.012-.434.012-.551a2.329,2.329,0,0,0-.6-1.816,3.53,3.53,0,0,0-2.4-.715,3.725,3.725,0,0,0-2.2.521,3.186,3.186,0,0,0-1.049,1.846l-2.062-.281a5.11,5.11,0,0,1,.926-2.139,4.058,4.058,0,0,1,1.863-1.254,8.311,8.311,0,0,1,2.824-.439,7.475,7.475,0,0,1,2.59.375,3.412,3.412,0,0,1,1.465.943,3.318,3.318,0,0,1,.656,1.436,11.877,11.877,0,0,1,.105,1.945v2.813a29.852,29.852,0,0,0,.135,3.721A4.694,4.694,0,0,0,43.6,0H41.4A4.472,4.472,0,0,1,40.979-1.535ZM40.8-6.246a15.476,15.476,0,0,1-3.445.8,7.969,7.969,0,0,0-1.84.422,1.834,1.834,0,0,0-.832.686,1.8,1.8,0,0,0-.293,1,1.8,1.8,0,0,0,.639,1.406,2.748,2.748,0,0,0,1.869.563A4.35,4.35,0,0,0,39.068-1.9a3.283,3.283,0,0,0,1.395-1.459,5.1,5.1,0,0,0,.34-2.109ZM55.321,0V-1.828A4.555,4.555,0,0,1,51.372.281a5.033,5.033,0,0,1-2.057-.422A3.387,3.387,0,0,1,47.9-1.2a3.975,3.975,0,0,1-.65-1.564,10.711,10.711,0,0,1-.129-1.969v-7.711h2.109v6.9a12.3,12.3,0,0,0,.129,2.227A2.2,2.2,0,0,0,50.2-2.01a2.614,2.614,0,0,0,1.594.475,3.472,3.472,0,0,0,1.781-.486,2.7,2.7,0,0,0,1.178-1.324A6.645,6.645,0,0,0,55.1-5.777v-6.668h2.109V0ZM66.078-1.887l.3,1.863a7.824,7.824,0,0,1-1.594.188A3.608,3.608,0,0,1,63.008-.2a2.034,2.034,0,0,1-.891-.955,7.552,7.552,0,0,1-.258-2.49V-10.8H60.313v-1.641H61.86v-3.082l2.1-1.266v4.348h2.121V-10.8H63.957v7.277a3.676,3.676,0,0,0,.111,1.16.879.879,0,0,0,.363.41,1.4,1.4,0,0,0,.721.152A6.862,6.862,0,0,0,66.078-1.887Zm2.929,6.68-.234-1.98A4.7,4.7,0,0,0,69.98,3,2.316,2.316,0,0,0,71.1,2.766a1.916,1.916,0,0,0,.691-.656,10.347,10.347,0,0,0,.645-1.57q.059-.176.188-.516L67.905-12.445h2.273l2.59,7.207q.5,1.371.9,2.883a28.381,28.381,0,0,1,.867-2.836l2.66-7.254h2.109L74.573.211A24.843,24.843,0,0,1,73.39,3.035,4.166,4.166,0,0,1,72.1,4.564a3.045,3.045,0,0,1-1.734.486A4.224,4.224,0,0,1,69.007,4.793Zm28.8-6.328A7.855,7.855,0,0,1,95.554-.129a6.518,6.518,0,0,1-2.326.41,4.525,4.525,0,0,1-3.152-1,3.307,3.307,0,0,1-1.1-2.561,3.405,3.405,0,0,1,.416-1.67,3.444,3.444,0,0,1,1.09-1.213A5.125,5.125,0,0,1,92-6.855a15.073,15.073,0,0,1,1.875-.316A19.28,19.28,0,0,0,97.634-7.9q.012-.434.012-.551a2.329,2.329,0,0,0-.6-1.816,3.53,3.53,0,0,0-2.4-.715,3.725,3.725,0,0,0-2.2.521A3.186,3.186,0,0,0,91.4-8.613l-2.062-.281a5.11,5.11,0,0,1,.926-2.139,4.058,4.058,0,0,1,1.863-1.254,8.311,8.311,0,0,1,2.824-.439,7.475,7.475,0,0,1,2.59.375,3.412,3.412,0,0,1,1.465.943,3.318,3.318,0,0,1,.656,1.436,11.877,11.877,0,0,1,.105,1.945v2.813A29.852,29.852,0,0,0,99.9-1.494,4.694,4.694,0,0,0,100.435,0h-2.2A4.472,4.472,0,0,1,97.81-1.535Zm-.176-4.711a15.476,15.476,0,0,1-3.445.8,7.969,7.969,0,0,0-1.84.422,1.834,1.834,0,0,0-.832.686,1.8,1.8,0,0,0-.293,1,1.8,1.8,0,0,0,.639,1.406,2.748,2.748,0,0,0,1.869.563A4.35,4.35,0,0,0,95.9-1.9a3.283,3.283,0,0,0,1.395-1.459,5.1,5.1,0,0,0,.34-2.109ZM104,0V-12.445h1.9v1.77a4.474,4.474,0,0,1,3.961-2.051,5.2,5.2,0,0,1,2.068.4,3.253,3.253,0,0,1,1.412,1.061,4.071,4.071,0,0,1,.656,1.559,12.078,12.078,0,0,1,.117,2.051V0H112V-7.57a5.683,5.683,0,0,0-.246-1.928,2.028,2.028,0,0,0-.873-1.02,2.777,2.777,0,0,0-1.471-.381,3.418,3.418,0,0,0-2.326.855q-.979.855-.979,3.246V0Zm22.382,0V-1.57A3.871,3.871,0,0,1,122.9.281a4.88,4.88,0,0,1-2.736-.82,5.394,5.394,0,0,1-1.934-2.291,7.918,7.918,0,0,1-.686-3.381,8.849,8.849,0,0,1,.621-3.381,4.9,4.9,0,0,1,1.863-2.326,4.982,4.982,0,0,1,2.777-.809,4.15,4.15,0,0,1,2,.475,4.19,4.19,0,0,1,1.43,1.236V-17.18h2.1V0ZM119.71-6.211a5.4,5.4,0,0,0,1.008,3.574A3.039,3.039,0,0,0,123.1-1.453a2.983,2.983,0,0,0,2.35-1.131,5.214,5.214,0,0,0,.967-3.451,5.852,5.852,0,0,0-.984-3.75A3.028,3.028,0,0,0,123-10.98a2.923,2.923,0,0,0-2.35,1.148A5.668,5.668,0,0,0,119.71-6.211Zm20.025.691,2.145-.187a4.735,4.735,0,0,0,.709,2.115,3.87,3.87,0,0,0,1.729,1.336,6.546,6.546,0,0,0,2.637.51,6.318,6.318,0,0,0,2.3-.387,3.186,3.186,0,0,0,1.482-1.061,2.46,2.46,0,0,0,.486-1.471,2.236,2.236,0,0,0-.469-1.412A3.472,3.472,0,0,0,149.2-7.09a30.234,30.234,0,0,0-3.059-.838A15.628,15.628,0,0,1,142.83-9,4.65,4.65,0,0,1,141-10.6a3.92,3.92,0,0,1-.6-2.139,4.366,4.366,0,0,1,.738-2.432,4.571,4.571,0,0,1,2.156-1.717,8.18,8.18,0,0,1,3.152-.586,8.612,8.612,0,0,1,3.369.615,4.859,4.859,0,0,1,2.244,1.811,5.2,5.2,0,0,1,.844,2.707l-2.18.164a3.517,3.517,0,0,0-1.189-2.461,4.63,4.63,0,0,0-2.994-.832,4.8,4.8,0,0,0-3.006.756,2.267,2.267,0,0,0-.943,1.822,1.954,1.954,0,0,0,.668,1.523,9.051,9.051,0,0,0,3.428,1.225,22.673,22.673,0,0,1,3.8,1.1A5.208,5.208,0,0,1,152.7-7.295a4.268,4.268,0,0,1,.715,2.443,4.673,4.673,0,0,1-.785,2.584,5.17,5.17,0,0,1-2.256,1.887,7.859,7.859,0,0,1-3.311.674,9.885,9.885,0,0,1-3.908-.68,5.473,5.473,0,0,1-2.473-2.045A5.8,5.8,0,0,1,139.736-5.52Zm22.077,3.633.3,1.863a7.824,7.824,0,0,1-1.594.188A3.608,3.608,0,0,1,158.743-.2a2.034,2.034,0,0,1-.891-.955,7.552,7.552,0,0,1-.258-2.49V-10.8h-1.547v-1.641h1.547v-3.082l2.1-1.266v4.348h2.121V-10.8h-2.121v7.277a3.676,3.676,0,0,0,.111,1.16.879.879,0,0,0,.363.41,1.4,1.4,0,0,0,.721.152A6.862,6.862,0,0,0,161.813-1.887Zm2.929,6.68-.234-1.98A4.7,4.7,0,0,0,165.714,3a2.316,2.316,0,0,0,1.125-.234,1.916,1.916,0,0,0,.691-.656,10.347,10.347,0,0,0,.645-1.57q.059-.176.188-.516L163.64-12.445h2.273l2.59,7.207q.5,1.371.9,2.883a28.381,28.381,0,0,1,.867-2.836l2.66-7.254h2.109L170.308.211a24.843,24.843,0,0,1-1.184,2.824,4.166,4.166,0,0,1-1.289,1.529,3.045,3.045,0,0,1-1.734.486A4.224,4.224,0,0,1,164.742,4.793ZM177.749,0V-17.18h2.109V0Zm14.858-4.008,2.18.27a5.318,5.318,0,0,1-1.91,2.965A5.742,5.742,0,0,1,189.314.281a5.693,5.693,0,0,1-4.33-1.682,6.571,6.571,0,0,1-1.6-4.717A6.877,6.877,0,0,1,185-10.992a5.474,5.474,0,0,1,4.2-1.734,5.321,5.321,0,0,1,4.078,1.7,6.751,6.751,0,0,1,1.582,4.781q0,.188-.012.563h-9.281a4.782,4.782,0,0,0,1.16,3.141,3.453,3.453,0,0,0,2.6,1.09,3.228,3.228,0,0,0,1.98-.609A4.045,4.045,0,0,0,192.607-4.008Zm-6.926-3.41h6.949a4.216,4.216,0,0,0-.8-2.355,3.233,3.233,0,0,0-2.613-1.219,3.351,3.351,0,0,0-2.443.973A3.85,3.85,0,0,0,185.681-7.418Z" transform="translate(450.5 223)"/>
    <path id="Path_7" data-name="Path 7" class="cls-2" d="M62.016-14.544Q52.8-.528,43.776-.528a31.34,31.34,0,0,1-11.5-2.544A61.528,61.528,0,0,1,20.4-9.384,75.889,75.889,0,0,1,10.368-17.52a35.2,35.2,0,0,1-6.48-7.968q-2.592-4.7-.72-7.584Q5.424-36.528,13.44-35.9a81.331,81.331,0,0,1,10.824,1.656q5.88,1.272,12.408,3.312t11.952,3.984q5.424,1.944,12.336,4.584a2.679,2.679,0,0,0,1.992,0,2.881,2.881,0,0,0,1.512-1.344q2.064-3.984,4.08-8.688A233.756,233.756,0,0,0,79.056-62.448a1.153,1.153,0,0,1,1.152-.912,1.1,1.1,0,0,1,1.248.768,16.235,16.235,0,0,1,.456,4.056q.12,3.192.168,11.736.144,21.024.912,31.008a2.557,2.557,0,0,0,.576,1.512,2.973,2.973,0,0,0,1.344.936A39.469,39.469,0,0,0,96.24-10.7a1.232,1.232,0,0,1,.864.36,1.228,1.228,0,0,1,.408.864,1.172,1.172,0,0,1-.336.888,1.169,1.169,0,0,1-.888.384A32.914,32.914,0,0,1,86.064-10.32a1.63,1.63,0,0,0-1.656.36,1.683,1.683,0,0,0-.6,1.608q.816,4.752,1.968,5.184a1.36,1.36,0,0,1,.72.648,1.129,1.129,0,0,1,.072.936,1.258,1.258,0,0,1-.624.72,1.2,1.2,0,0,1-.936.1q-2.784-.912-3.984-9.7A2.614,2.614,0,0,0,79.2-12.672q-3.744-1.392-10.416-3.984-.384-.1-1.1-.264t-1.008-.216q-.288-.048-.84-.12a2.259,2.259,0,0,0-.816,0q-.264.072-.72.24a2.09,2.09,0,0,0-.768.48,10.667,10.667,0,0,0-.72.816A8.832,8.832,0,0,0,62.016-14.544ZM11.136-33.5q-4.7,0-5.856,1.776Q4.224-30.1,6.1-26.688a32.453,32.453,0,0,0,6.432,7.848A71.268,71.268,0,0,0,22.3-11.16a62.145,62.145,0,0,0,11.16,5.808,28.511,28.511,0,0,0,10.32,2.328q7.92,0,16.416-13.344a2.661,2.661,0,0,0,.312-2.376A2.661,2.661,0,0,0,58.848-20.5q-14.16-5.424-25.44-8.832a95.713,95.713,0,0,0-20.16-4.08Q12.144-33.5,11.136-33.5Zm67.44-18.384a190.789,190.789,0,0,1-12.96,31.3l1.92.768q6.672,2.592,9.648,3.7a2.159,2.159,0,0,0,2.16-.312,2.129,2.129,0,0,0,.912-1.992Q79.68-27.7,79.536-46.8q0-3.312-.048-4.848a1.366,1.366,0,0,0-.168-.768q-.168-.24-.384-.12A1.039,1.039,0,0,0,78.576-51.888ZM151.824-12.48a1.242,1.242,0,0,1,.936.288,1.2,1.2,0,0,1,.456.84,1.4,1.4,0,0,1-.24.936q-.384.48-1.08,1.248t-2.52,2.4a34.915,34.915,0,0,1-3.744,2.928A21.924,21.924,0,0,1,141-1.536a15.047,15.047,0,0,1-5.256,1.008,12.836,12.836,0,0,1-6.672-1.824,9.59,9.59,0,0,1-3.84-4.656,7.37,7.37,0,0,0-1.152-1.944,1.378,1.378,0,0,0-1.248-.264q-.96.144-3.288,2.376a21.779,21.779,0,0,0-3.72,4.584,1.166,1.166,0,0,1-1.464.576,1.165,1.165,0,0,1-.888-1.3,10.046,10.046,0,0,0-.792-4.848q-.936-1.968-2.04-2.112a3.217,3.217,0,0,0-1.416.144,9.8,9.8,0,0,0-2.088,1.032,19.319,19.319,0,0,0-3.216,2.688A50.737,50.737,0,0,0,99.744-1.3a1.156,1.156,0,0,1-1.536.336,1.1,1.1,0,0,1-.672-1.392l2.3-10.128a1.176,1.176,0,0,1,.552-.816,1.209,1.209,0,0,1,.96-.168,1.252,1.252,0,0,1,.792.576,1.1,1.1,0,0,1,.144.936q-.912,3.936-.912,4.128a.272.272,0,0,0,.168.336q.216.1.408-.144a28.581,28.581,0,0,1,3.6-3.048,8.923,8.923,0,0,1,2.832-1.416,8.608,8.608,0,0,1,1.872-.288,7.174,7.174,0,0,1,1.536.192,6.714,6.714,0,0,1,2.52,1.968A6.031,6.031,0,0,1,115.584-7.3a.392.392,0,0,0,.312.312.35.35,0,0,0,.408-.12,24.83,24.83,0,0,1,3.312-3.12,6.925,6.925,0,0,1,2.832-1.488,4.924,4.924,0,0,1,1.9.072,2.983,2.983,0,0,1,1.464.888,8.02,8.02,0,0,1,.936,1.176,15.064,15.064,0,0,1,.744,1.416,7.507,7.507,0,0,0,2.832,3.6,9.873,9.873,0,0,0,4.248,1.392A11.988,11.988,0,0,0,138.7-3.48a17.288,17.288,0,0,0,3.864-1.584A25.794,25.794,0,0,0,145.9-7.2a32.272,32.272,0,0,0,2.664-2.3q1.3-1.248,1.752-1.728t.7-.768A1.047,1.047,0,0,1,151.824-12.48Zm28.992-.864a1.288,1.288,0,0,1,.912.36,1.169,1.169,0,0,1,.384.888,1.339,1.339,0,0,1-.336.912q-.576.576-1.488,1.416t-3.336,2.736a50.727,50.727,0,0,1-4.824,3.36,30.148,30.148,0,0,1-5.664,2.616A18.5,18.5,0,0,1,160.32.1,12.588,12.588,0,0,1,152.4-2.5a5.259,5.259,0,0,1-1.92-2.544,7.79,7.79,0,0,1-.528-2.928,12.3,12.3,0,0,1,.48-2.88,20.624,20.624,0,0,1,.7-2.16q.264-.624.456-1.008a1.376,1.376,0,0,1,.768-.576,1.2,1.2,0,0,1,.936.1,1.258,1.258,0,0,1,.624.72,1.071,1.071,0,0,1-.072.912q-.1.24-.312.7a14.1,14.1,0,0,0-.576,1.608A10.669,10.669,0,0,0,152.5-8.4a5.893,5.893,0,0,0,.216,2.136,3.1,3.1,0,0,0,1.176,1.752,10.284,10.284,0,0,0,4.7,1.9,13.2,13.2,0,0,0,4.968-.216,24.4,24.4,0,0,0,4.9-1.8,34.724,34.724,0,0,0,4.416-2.52q1.9-1.3,3.648-2.736t2.472-2.136q.72-.7.96-.936A1.194,1.194,0,0,1,180.816-13.344Zm-29.76-3.408a1.134,1.134,0,0,1-1.2-.96,1.173,1.173,0,0,1,.624-1.44,8.659,8.659,0,0,0,2.4-1.776,1.219,1.219,0,0,1,.888-.384,1.259,1.259,0,0,1,.888.36,1.228,1.228,0,0,1,.408.864,1.137,1.137,0,0,1-.36.888,11.481,11.481,0,0,1-3.024,2.256A1.1,1.1,0,0,1,151.056-16.752Zm61.1,3.312a1.288,1.288,0,0,1,.912.36,1.169,1.169,0,0,1,.384.888,1.246,1.246,0,0,1-.384.912q-.528.576-1.416,1.416t-3.264,2.712a50.834,50.834,0,0,1-4.7,3.312,31.73,31.73,0,0,1-5.424,2.616A16.35,16.35,0,0,1,192.48-.048a11,11,0,0,1-3.888-.72q-4.32-1.632-6.384-7.248t-1.536-14.208a.933.933,0,0,0-.336-.624.843.843,0,0,0-.672-.192q-2.016.144-4.128.312l-3.648.288q-1.536.12-2.808.192t-1.944.12q-.672.048-.72.048h-.1a1.128,1.128,0,0,1-.912-.312,1.169,1.169,0,0,1-.384-.888,1.339,1.339,0,0,1,.336-.912,1.1,1.1,0,0,1,.864-.384q.048,0,.768-.048t2.04-.144l2.928-.216,3.816-.288q2.208-.168,4.32-.312.864-.1,1.056-1.344.432-2.976,1.128-5.808t1.608-5.424a17.712,17.712,0,0,1,2.088-4.272,4.151,4.151,0,0,1,2.424-1.92q1.92-.336,3.024,1.92.72,1.44-.144,5.688A71.347,71.347,0,0,1,188.5-27.12a.941.941,0,0,0-.072.6.591.591,0,0,0,.168.288.389.389,0,0,0,.24.072q10.992-.672,15.84-.672a1.169,1.169,0,0,1,.888.384,1.259,1.259,0,0,1,.36.888,1.259,1.259,0,0,1-.36.888,1.169,1.169,0,0,1-.888.384q-7.488,0-16.7.72a1.316,1.316,0,0,0-.6.1.883.883,0,0,0-.312.432q-1.2,3.5-3.6,9.552,1.2,8.5,6.048,10.368a8.458,8.458,0,0,0,3.024.528,11.905,11.905,0,0,0,3.192-.432,22.765,22.765,0,0,0,3.264-1.2,30.339,30.339,0,0,0,3.144-1.632q1.44-.864,2.9-1.92t2.5-1.9q1.032-.84,1.968-1.7t1.3-1.2q.36-.336.5-.48A1.1,1.1,0,0,1,212.16-13.44ZM183.7-26.976q-.192,1.1.336,1.1a6.185,6.185,0,0,0,.768-.048.883.883,0,0,0,.864-.816q4.368-12.768,3.5-14.544a.516.516,0,0,0-.384-.36.473.473,0,0,0-.48.12,16.773,16.773,0,0,0-2.5,5.3A50.76,50.76,0,0,0,183.7-26.976Zm-.624,7.488q.432,0,1.08-1.776t.36-2.112a1.11,1.11,0,0,0-1.248.1,2.264,2.264,0,0,0-.36,1.176,9.646,9.646,0,0,0-.072,1.776Q182.88-19.488,183.072-19.488Zm64.7,7.584a1.1,1.1,0,0,1,.864.384,1.248,1.248,0,0,1,.312.912,1.171,1.171,0,0,1-.408.864q-.576.528-1.392,1.176t-3.12,2.208a38.416,38.416,0,0,1-4.488,2.64,25.358,25.358,0,0,1-5.04,1.8,13.506,13.506,0,0,1-5.208.384,9.942,9.942,0,0,1-4.032-1.656,9.327,9.327,0,0,1-2.88-3.192,2.951,2.951,0,0,0-2.448-1.632,3.276,3.276,0,0,0-1.392.24A11.286,11.286,0,0,0,216.6-6.744,15.017,15.017,0,0,0,213.84-4.3a35.881,35.881,0,0,0-3.312,4.248,1.114,1.114,0,0,1-1.44.432,1.137,1.137,0,0,1-.816-1.3,80.378,80.378,0,0,1,1.44-9.312,1.156,1.156,0,0,1,.048-1.44l.336-.48q1.248-6.144,2.928-11.952,1.248-4.56,2.5-7.92a51.751,51.751,0,0,1,2.088-5.016,14.214,14.214,0,0,1,1.728-2.712,6.08,6.08,0,0,1,1.248-1.248,5.123,5.123,0,0,1,.792-.336,2.549,2.549,0,0,1,1.584.024,2.77,2.77,0,0,1,1.3.936,4.985,4.985,0,0,1,1.032,3.1,13.46,13.46,0,0,1-.528,4.1,33.323,33.323,0,0,1-1.8,4.8q-1.2,2.64-2.5,4.944t-2.88,4.8q-1.584,2.5-2.688,4.08t-2.16,3.072l-.1.144-.288.432q-.672,3.552-.768,4.08a.419.419,0,0,0,.264.48.451.451,0,0,0,.552-.1q4.176-4.368,7.728-4.08a5.289,5.289,0,0,1,2.568.864,5.461,5.461,0,0,1,1.848,2.016,7.394,7.394,0,0,0,2.16,2.4,6.736,6.736,0,0,0,2.976,1.2,11.435,11.435,0,0,0,4.584-.408A22.35,22.35,0,0,0,238.8-6.168a41.462,41.462,0,0,0,4.08-2.472q2.112-1.44,2.808-2.016t1.176-.96A1.168,1.168,0,0,1,247.776-11.9ZM222.1-38.928q-.912,0-3.192,5.16a97.624,97.624,0,0,0-3.936,10.488q-1.656,5.328-1.08,5.664.24.144.96-.816a22.866,22.866,0,0,0,1.632-2.616q.912-1.656,1.944-3.768t1.92-4.3q.888-2.184,1.512-4.2a18.2,18.2,0,0,0,.768-3.432,2.891,2.891,0,0,0-.336-2.04Q222.144-38.928,222.1-38.928Zm63.456,26.88a1.1,1.1,0,0,1,.864.384,1.248,1.248,0,0,1,.312.912,1.171,1.171,0,0,1-.408.864q-.432.384-1.128.984t-2.52,1.944a43.382,43.382,0,0,1-3.7,2.448,37.9,37.9,0,0,1-4.416,2.184,23.379,23.379,0,0,1-4.9,1.512,15.46,15.46,0,0,1-4.944.072A11.614,11.614,0,0,1,259.968-2.5a9.792,9.792,0,0,1-3.216-3.36,1.219,1.219,0,0,0-1.032-.624,1.123,1.123,0,0,0-1.08.528,21.38,21.38,0,0,1-3.672,4.368A6.051,6.051,0,0,1,247.3.24h-.048a3.132,3.132,0,0,1-1.608-.552,2.9,2.9,0,0,1-1.08-1.32,7.845,7.845,0,0,1,.432-7.008,16.221,16.221,0,0,1,4.44-5.64,16,16,0,0,1,6.456-3.192,1.166,1.166,0,0,1,1.224.336,1.162,1.162,0,0,1,.288,1.224,1.257,1.257,0,0,1-.936.888,13.463,13.463,0,0,0-5.424,2.664A13.526,13.526,0,0,0,247.3-7.584a5.527,5.527,0,0,0-.48,4.8q.288.48.432.48.816.528,3.168-2.976a53.931,53.931,0,0,0,4.224-7.584,1.147,1.147,0,0,1,1.344-.72,1.162,1.162,0,0,1,1.056,1.056q.048.24.12.648a14.651,14.651,0,0,0,.408,1.488,17.993,17.993,0,0,0,.768,2.04,10.783,10.783,0,0,0,1.248,2.04,7.1,7.1,0,0,0,1.776,1.7,9.08,9.08,0,0,0,4.1,1.44,13.2,13.2,0,0,0,4.368-.24,23.9,23.9,0,0,0,4.392-1.512,32.456,32.456,0,0,0,3.984-2.088q1.68-1.056,3.312-2.256t2.232-1.7q.6-.5.888-.792A1.168,1.168,0,0,1,285.552-12.048Z" transform="translate(404.5 191)" />
  </g>
</svg>
