<svg xmlns="http://www.w3.org/2000/svg" width="70" height="70" viewBox="0 0 70 70">
  <g id="Group_7" data-name="Group 7" transform="translate(-214 -32)">
    <rect id="Rectangle_1" data-name="Rectangle 1" width="70" height="70" rx="8" transform="translate(214 32)" fill="#333"/>
    <path id="Path_9" data-name="Path 9" d="M41.248-32.453q-6.006,8.875-11.888,8.875a20.935,20.935,0,0,1-7.492-1.611,40.507,40.507,0,0,1-7.743-4,49.215,49.215,0,0,1-6.538-5.152,22.419,22.419,0,0,1-4.223-5.045q-1.689-2.979-.469-4.8,1.47-2.188,6.695-1.793a54.452,54.452,0,0,1,7.054,1.049q3.832.805,8.087,2.1t7.79,2.523q3.535,1.231,8.04,2.9a1.794,1.794,0,0,0,1.3,0,1.861,1.861,0,0,0,.985-.851q1.345-2.523,2.659-5.5a145.21,145.21,0,0,0,6.851-19.026.747.747,0,0,1,.751-.577.718.718,0,0,1,.813.486,10,10,0,0,1,.3,2.568q.078,2.021.11,7.431.094,13.312.594,19.634a1.592,1.592,0,0,0,.375.957,1.939,1.939,0,0,0,.876.593,26.355,26.355,0,0,0,7.383,1.672.815.815,0,0,1,.563.228.769.769,0,0,1,.266.547.731.731,0,0,1-.219.562.772.772,0,0,1-.579.243,22,22,0,0,1-6.663-1.337,1.085,1.085,0,0,0-1.079.228,1.05,1.05,0,0,0-.391,1.018q.532,3.009,1.283,3.282a.878.878,0,0,1,.469.41.7.7,0,0,1,.047.593.8.8,0,0,1-.407.456.8.8,0,0,1-.61.061q-1.814-.577-2.6-6.139a1.667,1.667,0,0,0-1.189-1.4q-2.44-.881-6.788-2.523-.25-.061-.72-.167t-.657-.137q-.188-.03-.547-.076a1.515,1.515,0,0,0-.532,0q-.172.046-.469.152a1.369,1.369,0,0,0-.5.3,6.821,6.821,0,0,0-.469.517A5.586,5.586,0,0,0,41.248-32.453ZM8.088-44.459q-3.066,0-3.817,1.125Q3.583-42.3,4.8-40.143a20.676,20.676,0,0,0,4.192,4.969,46.278,46.278,0,0,0,6.366,4.863,40.94,40.94,0,0,0,7.273,3.678,19.043,19.043,0,0,0,6.726,1.474q5.162,0,10.7-8.449a1.644,1.644,0,0,0,.2-1.5,1.707,1.707,0,0,0-1.079-1.109q-9.229-3.434-16.58-5.592A63.99,63.99,0,0,0,9.464-44.4Q8.745-44.459,8.088-44.459ZM52.041-56.1a118.915,118.915,0,0,1-8.447,19.816l1.251.486q4.348,1.641,6.288,2.34a1.44,1.44,0,0,0,1.408-.2,1.334,1.334,0,0,0,.594-1.261q-.375-5.866-.469-17.962,0-2.1-.031-3.07a.845.845,0,0,0-.109-.486.178.178,0,0,0-.25-.076A.654.654,0,0,0,52.041-56.1Z" transform="translate(216.117 110.87)" fill="#f3f3f3" stroke="#f3f3f3" stroke-width="2"/>
  </g>
</svg>
